<svg width="18" height="17" viewBox="0 0 18 17" fill="none" xmlns="http://www.w3.org/2000/svg">
<path fill-rule="evenodd" clip-rule="evenodd" d="M9.28002 0.291016C4.6631 0.291016 0.94873 4.00538 0.94873 8.62231C0.94873 12.302 3.34398 15.4262 6.64178 16.537C7.05835 16.6065 7.1972 16.3635 7.1972 16.1205C7.1972 15.9122 7.1972 15.3915 7.1972 14.6972C4.87138 15.2179 4.38539 13.5864 4.38539 13.5864C4.00354 12.6144 3.44812 12.3714 3.44812 12.3714C2.68442 11.8507 3.51755 11.8507 3.51755 11.8507C4.35068 11.9201 4.80195 12.7185 4.80195 12.7185C5.53094 14.0029 6.74592 13.6211 7.23191 13.4128C7.30134 12.8574 7.50962 12.5103 7.75262 12.302C5.91279 12.0937 3.96882 11.3647 3.96882 8.17103C3.96882 7.26848 4.28125 6.50477 4.83667 5.94935C4.76724 5.74107 4.45482 4.90794 4.90609 3.72767C4.90609 3.72767 5.60037 3.51939 7.1972 4.59552C7.85676 4.42195 8.58575 4.31781 9.28002 4.31781C9.9743 4.31781 10.7033 4.42195 11.3628 4.59552C12.9597 3.51939 13.654 3.72767 13.654 3.72767C14.1052 4.87323 13.8275 5.70636 13.7234 5.94935C14.2441 6.53949 14.5912 7.26848 14.5912 8.17103C14.5912 11.3647 12.6473 12.059 10.7727 12.2673C11.0851 12.5103 11.3281 13.031 11.3281 13.7947C11.3281 14.9055 11.3281 15.8081 11.3281 16.0858C11.3281 16.294 11.467 16.5718 11.9183 16.5023C15.2161 15.4262 17.6113 12.302 17.6113 8.62231C17.6113 4.00538 13.8969 0.291016 9.28002 0.291016Z" fill="white"/>
</svg>
