<svg width="15" height="13" viewBox="0 0 15 13" fill="none" xmlns="http://www.w3.org/2000/svg">
<path d="M14.4817 2.12811C13.943 2.36755 13.3743 2.5172 12.7757 2.60699C13.3743 2.24783 13.8532 1.67916 14.0627 0.990761C13.494 1.31999 12.8655 1.55943 12.1771 1.70909C11.6383 1.14041 10.8602 0.78125 10.0221 0.78125C8.40589 0.78125 7.08896 2.09818 7.08896 3.71441C7.08896 3.95385 7.11889 4.16336 7.17875 4.37287C4.75441 4.25315 2.56951 3.08587 1.10293 1.29006C0.863488 1.73902 0.713838 2.2179 0.713838 2.75664C0.713838 3.77427 1.22265 4.67217 2.03076 5.21091C1.55188 5.18098 1.10293 5.06126 0.683907 4.85175V4.88168C0.683907 6.31833 1.70153 7.51554 3.04839 7.78491C2.80895 7.84477 2.53958 7.8747 2.27021 7.8747C2.09062 7.8747 1.88111 7.84477 1.70153 7.81484C2.09062 8.98212 3.16811 9.85009 4.45511 9.85009C3.43748 10.6283 2.18042 11.1072 0.803628 11.1072C0.564187 11.1072 0.324745 11.1072 0.115234 11.0772C1.43216 11.9153 2.9586 12.3942 4.63469 12.3942C10.052 12.3942 13.0151 7.90463 13.0151 4.01371C13.0151 3.89399 13.0151 3.74434 13.0151 3.62462C13.5838 3.23552 14.0926 2.72671 14.4817 2.12811Z" fill="white"/>
</svg>
