<svg width="24" height="24" viewBox="0 0 24 24" fill="none" xmlns="http://www.w3.org/2000/svg">
<rect width="24" height="24" rx="12" fill="#112220"/>
<path d="M15.7729 11.6479C15.7207 11.7003 15.6586 11.7419 15.5902 11.7703C15.5218 11.7987 15.4485 11.8133 15.3745 11.8133C15.3005 11.8133 15.2272 11.7987 15.1588 11.7703C15.0904 11.7419 15.0283 11.7003 14.9761 11.6479L12.5625 9.23427V16.1249C12.5625 16.2741 12.5032 16.4172 12.3977 16.5226C12.2922 16.6281 12.1492 16.6874 12 16.6874C11.8508 16.6874 11.7077 16.6281 11.6022 16.5226C11.4967 16.4172 11.4375 16.2741 11.4375 16.1249V9.23427L9.02295 11.6479C8.91728 11.7535 8.77395 11.8129 8.62451 11.8129C8.47507 11.8129 8.33175 11.7535 8.22607 11.6479C8.1204 11.5422 8.06104 11.3989 8.06104 11.2494C8.06104 11.1 8.1204 10.9567 8.22607 10.851L11.6011 7.47599C11.6533 7.42355 11.7154 7.38194 11.7838 7.35355C11.8522 7.32516 11.9255 7.31055 11.9995 7.31055C12.0735 7.31055 12.1468 7.32516 12.2152 7.35355C12.2836 7.38194 12.3457 7.42355 12.3979 7.47599L15.7729 10.851C15.8254 10.9032 15.867 10.9653 15.8954 11.0337C15.9238 11.1021 15.9384 11.1754 15.9384 11.2494C15.9384 11.3235 15.9238 11.3968 15.8954 11.4651C15.867 11.5335 15.8254 11.5956 15.7729 11.6479Z" fill="#33C6AB"/>
<rect x="0.5" y="0.5" width="23" height="23" rx="11.5" stroke="#236456"/>
</svg>
