<svg width="95" height="34" viewBox="0 0 95 34" fill="none" xmlns="http://www.w3.org/2000/svg">
<g clip-path="url(#clip0_9_1108)">
<rect x="-0.0032959" y="0.5" width="95" height="33" rx="16.5" fill="#112220"/>
<g clip-path="url(#clip1_9_1108)">
<path d="M26.4255 15.7549L22.5705 14.2654L21.1686 10.1694C21.0811 9.91383 20.9218 9.693 20.7121 9.53694C20.5025 9.38089 20.2527 9.29718 19.9967 9.29718C19.7407 9.29718 19.4909 9.38089 19.2813 9.53694C19.0716 9.693 18.9123 9.91383 18.8248 10.1694L17.423 14.2654L13.568 15.7549C13.3274 15.8478 13.1195 16.0171 12.9727 16.2399C12.8258 16.4626 12.747 16.728 12.747 17C12.747 17.272 12.8258 17.5374 12.9727 17.7601C13.1195 17.9829 13.3274 18.1522 13.568 18.2451L17.423 19.7346L18.8248 23.8305C18.9123 24.0862 19.0716 24.307 19.2813 24.463C19.4909 24.6191 19.7407 24.7028 19.9967 24.7028C20.2527 24.7028 20.5025 24.6191 20.7121 24.463C20.9218 24.307 21.0811 24.0862 21.1686 23.8305L22.5705 19.7346L26.4255 18.2451C26.666 18.1522 26.8739 17.9829 27.0207 17.7601C27.1676 17.5374 27.2464 17.272 27.2464 17C27.2464 16.728 27.1676 16.4626 27.0207 16.2399C26.8739 16.0171 26.666 15.8478 26.4255 15.7549ZM21.9473 18.2783C21.7759 18.3443 21.6202 18.4496 21.4912 18.5866C21.3623 18.7236 21.2632 18.889 21.2011 19.0712L19.9967 22.5907L18.7923 19.0712C18.7302 18.889 18.6311 18.7236 18.5022 18.5866C18.3732 18.4496 18.2175 18.3443 18.0461 18.2783L14.7336 17L18.0461 15.7203C18.2175 15.6543 18.3732 15.5491 18.5022 15.4121C18.6311 15.2751 18.7302 15.1096 18.7923 14.9275L19.9967 11.4079L21.2011 14.9275C21.2632 15.1096 21.3623 15.2751 21.4912 15.4121C21.6202 15.5491 21.7759 15.6543 21.9473 15.7203L25.2598 17L21.9473 18.2783Z" fill="#33C6AB"/>
</g>
<path d="M32.9907 21.5V11.7H36.4207C37.186 11.7 37.8207 11.8307 38.3247 12.092C38.8287 12.344 39.202 12.694 39.4447 13.142C39.6967 13.5807 39.8227 14.08 39.8227 14.64C39.8227 15.172 39.7014 15.662 39.4587 16.11C39.2254 16.5487 38.8567 16.8987 38.3527 17.16C37.8487 17.4213 37.2047 17.552 36.4207 17.552H34.4747V21.5H32.9907ZM34.4747 16.334H36.3507C37.0507 16.334 37.55 16.1847 37.8487 15.886C38.1567 15.578 38.3107 15.1627 38.3107 14.64C38.3107 14.0987 38.1567 13.6787 37.8487 13.38C37.55 13.072 37.0507 12.918 36.3507 12.918H34.4747V16.334ZM44.0987 21.668C43.4361 21.668 42.8387 21.5187 42.3067 21.22C41.7841 20.912 41.3687 20.4873 41.0607 19.946C40.7527 19.3953 40.5987 18.756 40.5987 18.028C40.5987 17.3 40.7527 16.6653 41.0607 16.124C41.3781 15.5733 41.8027 15.1487 42.3347 14.85C42.8667 14.542 43.4594 14.388 44.1127 14.388C44.7754 14.388 45.3681 14.542 45.8907 14.85C46.4227 15.1487 46.8427 15.5733 47.1507 16.124C47.4681 16.6653 47.6267 17.3 47.6267 18.028C47.6267 18.756 47.4681 19.3953 47.1507 19.946C46.8427 20.4873 46.4227 20.912 45.8907 21.22C45.3587 21.5187 44.7614 21.668 44.0987 21.668ZM44.0987 20.394C44.4534 20.394 44.7801 20.3053 45.0787 20.128C45.3867 19.9507 45.6341 19.6893 45.8207 19.344C46.0074 18.9893 46.1007 18.5507 46.1007 18.028C46.1007 17.5053 46.0074 17.0713 45.8207 16.726C45.6434 16.3713 45.4007 16.1053 45.0927 15.928C44.7941 15.7507 44.4674 15.662 44.1127 15.662C43.7581 15.662 43.4267 15.7507 43.1187 15.928C42.8201 16.1053 42.5774 16.3713 42.3907 16.726C42.2041 17.0713 42.1107 17.5053 42.1107 18.028C42.1107 18.5507 42.2041 18.9893 42.3907 19.344C42.5774 19.6893 42.8201 19.9507 43.1187 20.128C43.4174 20.3053 43.7441 20.394 44.0987 20.394ZM49.2316 24.58V14.556H50.5616L50.7156 15.634C50.9396 15.3073 51.2476 15.018 51.6396 14.766C52.0316 14.514 52.5356 14.388 53.1516 14.388C53.8236 14.388 54.4162 14.5467 54.9296 14.864C55.4429 15.1813 55.8442 15.6153 56.1336 16.166C56.4322 16.7167 56.5816 17.342 56.5816 18.042C56.5816 18.742 56.4322 19.3673 56.1336 19.918C55.8442 20.4593 55.4429 20.8887 54.9296 21.206C54.4162 21.514 53.8189 21.668 53.1376 21.668C52.5962 21.668 52.1156 21.5607 51.6956 21.346C51.2849 21.1313 50.9582 20.828 50.7156 20.436V24.58H49.2316ZM52.8856 20.38C53.5202 20.38 54.0429 20.1653 54.4536 19.736C54.8642 19.2973 55.0696 18.728 55.0696 18.028C55.0696 17.5707 54.9762 17.1647 54.7896 16.81C54.6029 16.4553 54.3462 16.18 54.0196 15.984C53.6929 15.7787 53.3149 15.676 52.8856 15.676C52.2509 15.676 51.7282 15.8953 51.3176 16.334C50.9162 16.7727 50.7156 17.3373 50.7156 18.028C50.7156 18.728 50.9162 19.2973 51.3176 19.736C51.7282 20.1653 52.2509 20.38 52.8856 20.38ZM60.7487 21.668C59.9087 21.668 59.246 21.4067 58.7607 20.884C58.2847 20.3613 58.0467 19.582 58.0467 18.546V14.556H59.5307V18.392C59.5307 19.736 60.0813 20.408 61.1827 20.408C61.7333 20.408 62.186 20.212 62.5407 19.82C62.8953 19.428 63.0727 18.868 63.0727 18.14V14.556H64.5567V21.5H63.2407L63.1287 20.282C62.914 20.7113 62.5967 21.052 62.1767 21.304C61.766 21.5467 61.29 21.668 60.7487 21.668ZM66.4445 21.5V11.42H67.9285V21.5H66.4445ZM72.1598 21.668C71.5718 21.668 71.0864 21.57 70.7038 21.374C70.3211 21.178 70.0364 20.9213 69.8498 20.604C69.6631 20.2773 69.5698 19.9227 69.5698 19.54C69.5698 18.868 69.8311 18.336 70.3538 17.944C70.8764 17.552 71.6231 17.356 72.5938 17.356H74.4138V17.23C74.4138 16.6887 74.2644 16.2827 73.9658 16.012C73.6764 15.7413 73.2984 15.606 72.8318 15.606C72.4211 15.606 72.0618 15.7087 71.7538 15.914C71.4551 16.11 71.2731 16.404 71.2078 16.796H69.7238C69.7704 16.292 69.9384 15.8627 70.2278 15.508C70.5264 15.144 70.8998 14.8687 71.3478 14.682C71.8051 14.486 72.3044 14.388 72.8458 14.388C73.8164 14.388 74.5678 14.6447 75.0998 15.158C75.6318 15.662 75.8978 16.3527 75.8978 17.23V21.5H74.6098L74.4838 20.31C74.2878 20.6927 74.0031 21.0147 73.6298 21.276C73.2564 21.5373 72.7664 21.668 72.1598 21.668ZM72.4538 20.464C72.8551 20.464 73.1911 20.3707 73.4618 20.184C73.7418 19.988 73.9564 19.7313 74.1058 19.414C74.2644 19.0967 74.3624 18.7467 74.3998 18.364H72.7478C72.1598 18.364 71.7398 18.4667 71.4878 18.672C71.2451 18.8773 71.1238 19.134 71.1238 19.442C71.1238 19.7593 71.2404 20.0113 71.4738 20.198C71.7164 20.3753 72.0431 20.464 72.4538 20.464ZM77.6281 21.5V14.556H78.9581L79.0841 15.872C79.3267 15.4147 79.6627 15.0553 80.0921 14.794C80.5307 14.5233 81.0581 14.388 81.6741 14.388V15.942H81.2681C80.8574 15.942 80.4887 16.012 80.1621 16.152C79.8447 16.2827 79.5881 16.5113 79.3921 16.838C79.2054 17.1553 79.1121 17.5987 79.1121 18.168V21.5H77.6281Z" fill="#33C6AB"/>
<rect x="0.496704" y="1" width="92.84" height="31.8" rx="15.9" stroke="#236456"/>
</g>
<defs>
<clipPath id="clip0_9_1108">
<rect x="-0.0032959" y="0.5" width="95" height="33" rx="16.5" fill="white"/>
</clipPath>
<clipPath id="clip1_9_1108">
<rect width="16" height="17" fill="white" transform="translate(11.9967 8.5)"/>
</clipPath>
</defs>
</svg>
