<svg width="44" height="44" viewBox="0 0 44 44" fill="none" xmlns="http://www.w3.org/2000/svg">
<circle cx="22" cy="22" r="22" fill="#DFFF9D"/>
<path d="M19.3384 19.3135L23.5315 19.3292M19.3148 25.6031L22.4596 25.6149M19.3266 22.4583L25.6163 22.4819" stroke="black" stroke-width="1.4" stroke-linecap="round"/>
<path d="M13.4173 19.2391C14.1112 16.3301 16.3931 14.0654 19.3072 13.3933C21.4117 12.908 23.5999 12.9162 25.7007 13.4174C28.6097 14.1112 30.8745 16.3931 31.5465 19.3072C32.0318 21.4117 32.0236 23.6 31.5225 25.7008C30.8286 28.6097 28.5467 30.8745 25.6326 31.5465C23.5281 32.0318 21.3399 32.0236 19.2391 31.5225C16.3301 30.8286 14.0653 28.5467 13.3933 25.6327C12.908 23.5282 12.9162 21.3399 13.4173 19.2391Z" stroke="black" stroke-width="1.4"/>
</svg>
