<svg width="19" height="18" viewBox="0 0 19 18" fill="none" xmlns="http://www.w3.org/2000/svg">
<path d="M9.50118 1.86042C11.8267 1.86042 12.1021 1.86913 13.0207 1.91102C13.5731 1.91777 14.1202 2.0192 14.6382 2.21088C15.0139 2.35577 15.3551 2.57772 15.6398 2.86244C15.9246 3.14717 16.1465 3.48836 16.2914 3.86406C16.4831 4.38212 16.5845 4.92922 16.5913 5.48157C16.6327 6.40023 16.6419 6.67562 16.6419 9.00111C16.6419 11.3266 16.6332 11.602 16.5913 12.5206C16.5845 13.073 16.4831 13.6201 16.2914 14.1382C16.1465 14.5139 15.9246 14.855 15.6398 15.1398C15.3551 15.4245 15.0139 15.6464 14.6382 15.7913C14.1202 15.983 13.5731 16.0844 13.0207 16.0912C12.1025 16.1327 11.8271 16.1418 9.50118 16.1418C7.17528 16.1418 6.89989 16.1331 5.98164 16.0912C5.42929 16.0844 4.8822 15.983 4.36413 15.7913C3.98844 15.6464 3.64724 15.4245 3.36252 15.1398C3.07779 14.855 2.85584 14.5139 2.71095 14.1382C2.51927 13.6201 2.41785 13.073 2.41109 12.5206C2.36961 11.602 2.36049 11.3266 2.36049 9.00111C2.36049 6.67562 2.3692 6.40023 2.41109 5.48157C2.41785 4.92922 2.51927 4.38212 2.71095 3.86406C2.85584 3.48836 3.07779 3.14717 3.36252 2.86244C3.64724 2.57772 3.98844 2.35577 4.36413 2.21088C4.8822 2.0192 5.42929 1.91777 5.98164 1.91102C6.90031 1.86954 7.1757 1.86042 9.50118 1.86042ZM9.50118 0.291016C7.13713 0.291016 6.83934 0.30097 5.91031 0.343274C5.18742 0.357652 4.47221 0.494524 3.7951 0.748066C3.21424 0.966914 2.68814 1.30987 2.25349 1.753C1.80996 2.18781 1.46671 2.71421 1.24773 3.29544C0.994182 3.97255 0.857311 4.68776 0.842933 5.41065C0.801458 6.33885 0.791504 6.63664 0.791504 9.00069C0.791504 11.3647 0.801458 11.6625 0.843762 12.5916C0.85814 13.3145 0.995012 14.0297 1.24855 14.7068C1.4673 15.2879 1.81025 15.8143 2.25349 16.2492C2.68838 16.6924 3.21478 17.0354 3.79593 17.2541C4.47304 17.5077 5.18825 17.6446 5.91113 17.6589C6.84017 17.7004 7.13671 17.7112 9.50201 17.7112C11.8673 17.7112 12.1639 17.7012 13.0929 17.6589C13.8158 17.6446 14.531 17.5077 15.2081 17.2541C15.7865 17.0299 16.3117 16.6875 16.7502 16.2487C17.1887 15.8099 17.5308 15.2845 17.7546 14.7059C18.0082 14.0288 18.1451 13.3136 18.1594 12.5907C18.2009 11.6625 18.2109 11.3647 18.2109 9.00069C18.2109 6.63664 18.2009 6.33885 18.1586 5.40982C18.1442 4.68693 18.0073 3.97172 17.7538 3.29461C17.5351 2.71346 17.1921 2.18706 16.7489 1.75217C16.314 1.30894 15.7876 0.965977 15.2064 0.747237C14.5293 0.493694 13.8141 0.356823 13.0912 0.342444C12.163 0.30097 11.8652 0.291016 9.50118 0.291016Z" fill="white"/>
<path d="M9.50144 4.53125C8.61684 4.53125 7.7521 4.79357 7.01658 5.28502C6.28106 5.77648 5.70779 6.47501 5.36927 7.29228C5.03075 8.10954 4.94217 9.00884 5.11475 9.87644C5.28733 10.744 5.71331 11.541 6.33881 12.1665C6.96432 12.792 7.76127 13.218 8.62887 13.3906C9.49648 13.5631 10.3958 13.4746 11.213 13.136C12.0303 12.7975 12.7288 12.2243 13.2203 11.4887C13.7117 10.7532 13.9741 9.88848 13.9741 9.00388C13.9741 7.81766 13.5028 6.68003 12.6641 5.84125C11.8253 5.00247 10.6877 4.53125 9.50144 4.53125ZM9.50144 11.9071C8.92723 11.9071 8.36592 11.7368 7.88849 11.4178C7.41106 11.0988 7.03894 10.6454 6.81921 10.1149C6.59947 9.5844 6.54197 9.00066 6.654 8.43749C6.76602 7.87431 7.04252 7.35701 7.44855 6.95099C7.85457 6.54496 8.37188 6.26846 8.93505 6.15644C9.49822 6.04441 10.082 6.10191 10.6125 6.32165C11.1429 6.54138 11.5964 6.9135 11.9154 7.39093C12.2344 7.86836 12.4047 8.42967 12.4047 9.00388C12.4047 9.77386 12.0988 10.5123 11.5543 11.0568C11.0099 11.6012 10.2714 11.9071 9.50144 11.9071Z" fill="white"/>
<path d="M14.1506 5.39501C14.7279 5.39501 15.1958 4.92708 15.1958 4.34985C15.1958 3.77262 14.7279 3.30469 14.1506 3.30469C13.5734 3.30469 13.1055 3.77262 13.1055 4.34985C13.1055 4.92708 13.5734 5.39501 14.1506 5.39501Z" fill="white"/>
</svg>
